<svg width="600" height="600" xmlns="http://www.w3.org/2000/svg"><defs/><g transform="translate(33 13)" fill="none" fill-rule="evenodd"><rect fill="#000" y="43.955" width="512.959" height="511.045" rx="80"/><path d="M440.448 190.16c-.045-.165-.137-.309-.195-.468-.11-.293-.204-.59-.36-.86-.105-.18-.258-.328-.382-.495-.164-.218-.303-.452-.499-.644-.16-.161-.365-.277-.546-.417-.205-.159-.387-.34-.615-.471l-.004-.002c-.002 0-.002-.002-.004-.004l-67.095-38.356a5.627 5.627 0 00-5.58 0l-67.093 38.353c-.002 0-.002.001-.004.003-.002 0-.004 0-.004.002-.227.131-.412.312-.615.471-.18.14-.386.258-.546.417-.194.192-.335.426-.499.645-.124.166-.276.316-.382.495-.156.269-.25.568-.36.86-.058.158-.15.302-.195.467a5.547 5.547 0 00-.194 1.45v72.847l-55.912 31.963v-142.51c0-.496-.068-.984-.194-1.45-.045-.165-.137-.31-.195-.468-.11-.294-.204-.59-.36-.86-.105-.181-.258-.329-.382-.495-.164-.219-.303-.452-.499-.645-.16-.16-.365-.276-.546-.417-.205-.158-.387-.34-.615-.47l-.004-.002c-.002 0-.002-.002-.004-.004l-67.093-38.355a5.627 5.627 0 00-5.58 0L96.8 149.095c-.002 0-.002.002-.004.004l-.004.001c-.227.131-.412.313-.615.471-.18.14-.386.258-.546.417-.194.193-.335.426-.499.645-.124.166-.276.316-.382.495-.156.27-.25.568-.36.86-.058.159-.15.303-.195.467a5.547 5.547 0 00-.194 1.45v228.17c0 1.987 1.07 3.82 2.803 4.813l134.186 76.708c.293.166.61.267.922.377.147.053.282.139.433.178a5.574 5.574 0 002.868 0c.13-.034.249-.11.377-.155.33-.114.666-.223.976-.4l134.186-76.708a5.546 5.546 0 002.803-4.812v-72.847l64.291-36.753a5.546 5.546 0 002.803-4.813v-76.057a5.708 5.708 0 00-.2-1.446zm-205.62 184.346l-55.669-31.417 58.464-33.564.002-.002 64.149-36.827 55.719 31.987-40.881 23.27-81.783 46.553zm127.674-141.508v63.653l-23.561-13.509-32.544-18.659V200.83l23.561 13.51 32.544 18.658zm5.51-74.09l55.604 31.94-55.604 31.941-55.604-31.94 55.604-31.94zM195.707 320.206l-23.56 13.377V194.754l32.543-18.476 23.56-13.377v138.826l-32.543 18.478zm-29.071-198.227l55.604 31.94-55.604 31.94-55.604-31.94 55.604-31.94zm-60.614 41.921l23.332 13.366 32.227 18.46V344l.002.01-.002.01c0 .213.06.412.084.62.032.272.04.548.11.808.002.004.002.01.004.013.06.218.176.413.262.622.096.23.165.474.292.69l.007.017c.114.195.279.356.416.536.151.195.278.41.456.584l.015.019c.157.154.355.264.531.4.198.155.378.331.599.46.007.003.016.005.024.01.007.003.013.01.02.014l63.85 35.956v63.599l-122.227-70.02V163.9h-.002zM361.5 377.972l-122.228 70.396v-63.954l90.52-51.691 31.708-18.105v63.354zm68.127-113.489l-56.105 32.168v-63.653l32.544-18.659 23.561-13.509v63.653z" fill="#FF2D20" fill-rule="nonzero"/><g transform="translate(423.755)"><ellipse fill="red" cx="63.619" cy="63.382" rx="63.619" ry="63.382"/><path d="M68.929 74.361H58.91l-4.809-46.413h19.637l-4.81 46.413zM54.2 89.233c0-2.795.902-5.09 2.705-6.887 1.804-1.797 4.141-2.695 7.013-2.695 2.873 0 5.21.898 7.014 2.695 1.803 1.797 2.705 4.092 2.705 6.887s-.902 5.09-2.705 6.887c-1.804 1.797-4.141 2.695-7.014 2.695-2.872 0-5.21-.898-7.013-2.695-1.803-1.796-2.705-4.092-2.705-6.887z" fill="#FFF" fill-rule="nonzero"/></g></g></svg>